<?xml version="1.0" encoding="UTF-8"?>
<svg version="1.1" xmlns="http://www.w3.org/2000/svg" width="500" height="500">
<path d="M0 0 C165 0 330 0 500 0 C500 165 500 330 500 500 C335 500 170 500 0 500 C0 335 0 170 0 0 Z " fill="#FEFEFE" transform="translate(0,0)"/>
<path d="M0 0 C3.02948329 0.0237924 6.05809194 0.02050678 9.08764648 0.01391602 C19.14610781 0.02831044 28.82547318 0.27062163 38.70288086 2.33618164 C39.39502686 2.47145264 40.08717285 2.60672363 40.80029297 2.74609375 C58.72396296 6.46293972 76.80163351 12.44829628 92.83178711 21.30639648 C94.76514996 22.3704524 96.71625065 23.39525935 98.67163086 24.41821289 C112.93896131 32.01005099 125.62321296 41.68062139 137.22436523 52.90893555 C138.76132495 54.3925991 140.31789851 55.85390441 141.87475586 57.31665039 C154.16706667 69.04653174 164.33663939 82.56101814 172.70288086 97.33618164 C173.0527002 97.93769043 173.40251953 98.53919922 173.76293945 99.15893555 C183.34564034 115.72699883 190.6790396 134.04646569 194.22729492 152.89599609 C194.59995008 154.80805373 195.0174803 156.71137498 195.4519043 158.61035156 C197.95822771 170.30230558 198.25833064 181.71857062 198.20288086 193.64868164 C198.20111847 194.66097839 198.19935608 195.67327515 198.19754028 196.71624756 C198.10497999 220.59491935 194.54088879 242.0778508 185.70288086 264.33618164 C185.13950762 265.81762068 184.57699387 267.2993869 184.01538086 268.78149414 C165.97868189 315.40515434 128.00777631 353.01781066 82.70288086 373.33618164 C73.57815396 377.22073594 64.30078618 380.80700389 54.70288086 383.33618164 C53.85725586 383.57852539 53.01163086 383.82086914 52.14038086 384.07055664 C49.0103556 384.92261907 45.87275429 385.64630963 42.70288086 386.33618164 C41.42413086 386.61848633 40.14538086 386.90079102 38.82788086 387.19165039 C-10.28572311 396.77344487 -63.62202573 385.45599421 -105.07055664 357.86743164 C-140.01577748 333.86787442 -164.43130466 301.35750914 -180.29711914 262.33618164 C-180.65418945 261.49700195 -181.01125977 260.65782227 -181.37915039 259.79321289 C-185.26533935 250.05451626 -187.21032783 239.58173486 -189.29711914 229.33618164 C-189.48838379 228.48572266 -189.67964844 227.63526367 -189.87670898 226.7590332 C-191.78693167 217.24725291 -191.66928783 207.6483206 -191.66772461 197.98608398 C-191.67205995 195.00192505 -191.70836732 192.01929532 -191.74633789 189.03540039 C-191.98343217 148.55285783 -177.14185525 108.21100114 -152.29711914 76.33618164 C-151.88945312 75.81282227 -151.48178711 75.28946289 -151.06176758 74.75024414 C-130.68675706 48.97289016 -105.81055412 30.31743611 -76.29711914 16.33618164 C-75.2155957 15.81282227 -74.13407227 15.28946289 -73.01977539 14.75024414 C-65.71271813 11.40228336 -58.23935251 8.94967858 -50.54711914 6.64868164 C-49.60803711 6.36307373 -48.66895508 6.07746582 -47.70141602 5.78320312 C-31.84550258 1.20680485 -16.45490933 -0.13800632 0 0 Z " fill="#3C0849" transform="translate(250.297119140625,55.663818359375)"/>
<path d="M0 0 C3.02948329 0.0237924 6.05809194 0.02050678 9.08764648 0.01391602 C19.14610781 0.02831044 28.82547318 0.27062163 38.70288086 2.33618164 C39.39502686 2.47145264 40.08717285 2.60672363 40.80029297 2.74609375 C58.72396296 6.46293972 76.80163351 12.44829628 92.83178711 21.30639648 C94.76514996 22.3704524 96.71625065 23.39525935 98.67163086 24.41821289 C112.93896131 32.01005099 125.62321296 41.68062139 137.22436523 52.90893555 C138.76132495 54.3925991 140.31789851 55.85390441 141.87475586 57.31665039 C154.16706667 69.04653174 164.33663939 82.56101814 172.70288086 97.33618164 C173.0527002 97.93769043 173.40251953 98.53919922 173.76293945 99.15893555 C183.34564034 115.72699883 190.6790396 134.04646569 194.22729492 152.89599609 C194.59995008 154.80805373 195.0174803 156.71137498 195.4519043 158.61035156 C197.95822771 170.30230558 198.25833064 181.71857062 198.20288086 193.64868164 C198.20111847 194.66097839 198.19935608 195.67327515 198.19754028 196.71624756 C198.10497999 220.59491935 194.54088879 242.0778508 185.70288086 264.33618164 C185.13950762 265.81762068 184.57699387 267.2993869 184.01538086 268.78149414 C165.97868189 315.40515434 128.00777631 353.01781066 82.70288086 373.33618164 C73.57815396 377.22073594 64.30078618 380.80700389 54.70288086 383.33618164 C53.85725586 383.57852539 53.01163086 383.82086914 52.14038086 384.07055664 C49.0103556 384.92261907 45.87275429 385.64630963 42.70288086 386.33618164 C41.42413086 386.61848633 40.14538086 386.90079102 38.82788086 387.19165039 C-10.28572311 396.77344487 -63.62202573 385.45599421 -105.07055664 357.86743164 C-140.01577748 333.86787442 -164.43130466 301.35750914 -180.29711914 262.33618164 C-180.65418945 261.49700195 -181.01125977 260.65782227 -181.37915039 259.79321289 C-185.26533935 250.05451626 -187.21032783 239.58173486 -189.29711914 229.33618164 C-189.48838379 228.48572266 -189.67964844 227.63526367 -189.87670898 226.7590332 C-191.78693167 217.24725291 -191.66928783 207.6483206 -191.66772461 197.98608398 C-191.67205995 195.00192505 -191.70836732 192.01929532 -191.74633789 189.03540039 C-191.98343217 148.55285783 -177.14185525 108.21100114 -152.29711914 76.33618164 C-151.88945312 75.81282227 -151.48178711 75.28946289 -151.06176758 74.75024414 C-130.68675706 48.97289016 -105.81055412 30.31743611 -76.29711914 16.33618164 C-75.2155957 15.81282227 -74.13407227 15.28946289 -73.01977539 14.75024414 C-65.71271813 11.40228336 -58.23935251 8.94967858 -50.54711914 6.64868164 C-49.60803711 6.36307373 -48.66895508 6.07746582 -47.70141602 5.78320312 C-31.84550258 1.20680485 -16.45490933 -0.13800632 0 0 Z M-40.29711914 37.33618164 C-41.5160083 37.68108643 -41.5160083 37.68108643 -42.75952148 38.03295898 C-79.59858319 48.65397392 -112.47709859 73.12142011 -133.29711914 105.33618164 C-133.99321289 106.39708008 -134.68930664 107.45797852 -135.40649414 108.55102539 C-145.32212445 124.08925408 -152.34837201 141.33936493 -156.29711914 159.33618164 C-156.68661743 161.0495874 -156.68661743 161.0495874 -157.08398438 162.79760742 C-159.13664563 172.33522616 -159.73928254 181.5228028 -159.63330078 191.26489258 C-159.6094894 193.59889897 -159.61280091 195.93176987 -159.61938477 198.26586914 C-159.60407451 206.81644945 -159.07966065 214.94162807 -157.29711914 223.33618164 C-157.12559326 224.19405273 -156.95406738 225.05192383 -156.77734375 225.93579102 C-147.6686178 270.0385164 -122.69118661 307.1161534 -85.25415039 332.05102539 C-71.88787178 340.8284818 -57.70384433 347.09933221 -42.29711914 351.33618164 C-41.06993164 351.68551758 -39.84274414 352.03485352 -38.57836914 352.39477539 C-24.83937167 356.20650944 -11.83440075 357.7809221 2.39038086 357.77368164 C3.2034671 357.77408447 4.01655334 357.7744873 4.85427856 357.77490234 C49.38929353 357.64834367 89.60577017 338.93964708 121.1472168 307.92358398 C125.00335471 303.98877408 128.38815912 299.7278655 131.70288086 295.33618164 C132.36545898 294.48926758 133.02803711 293.64235352 133.71069336 292.76977539 C148.1716389 273.74370783 157.48790056 251.40740182 163.01538086 228.27368164 C163.17474121 227.60820312 163.33410156 226.94272461 163.49829102 226.25708008 C168.58691331 203.78186407 167.30872592 177.54916736 161.70288086 155.33618164 C161.53159668 154.60802246 161.3603125 153.87986328 161.18383789 153.12963867 C156.85429769 134.9588787 148.58191041 117.48039204 137.70288086 102.33618164 C136.94620117 101.27657227 136.18952148 100.21696289 135.40991211 99.12524414 C125.28042045 85.30488691 113.57256573 73.38226217 99.70288086 63.33618164 C98.79538086 62.66973633 97.88788086 62.00329102 96.95288086 61.31665039 C94.56636332 59.60506984 92.15325695 57.9547411 89.70288086 56.33618164 C88.95264648 55.83731445 88.20241211 55.33844727 87.42944336 54.82446289 C79.9413562 50.08532467 71.89118709 46.65330059 63.70288086 43.33618164 C63.04964844 43.06773438 62.39641602 42.79928711 61.72338867 42.52270508 C29.9754346 29.6931613 -7.40193289 27.68361391 -40.29711914 37.33618164 Z " fill="#C96AE4" transform="translate(250.297119140625,55.663818359375)"/>
<path d="M0 0 C3.02948329 0.0237924 6.05809194 0.02050678 9.08764648 0.01391602 C19.14610781 0.02831044 28.82547318 0.27062163 38.70288086 2.33618164 C39.39502686 2.47145264 40.08717285 2.60672363 40.80029297 2.74609375 C58.72396296 6.46293972 76.80163351 12.44829628 92.83178711 21.30639648 C94.76514996 22.3704524 96.71625065 23.39525935 98.67163086 24.41821289 C112.93896131 32.01005099 125.62321296 41.68062139 137.22436523 52.90893555 C138.76132495 54.3925991 140.31789851 55.85390441 141.87475586 57.31665039 C154.16706667 69.04653174 164.33663939 82.56101814 172.70288086 97.33618164 C173.0527002 97.93769043 173.40251953 98.53919922 173.76293945 99.15893555 C183.34564034 115.72699883 190.6790396 134.04646569 194.22729492 152.89599609 C194.59995008 154.80805373 195.0174803 156.71137498 195.4519043 158.61035156 C197.95822771 170.30230558 198.25833064 181.71857062 198.20288086 193.64868164 C198.20111847 194.66097839 198.19935608 195.67327515 198.19754028 196.71624756 C198.10497999 220.59491935 194.54088879 242.0778508 185.70288086 264.33618164 C185.13950762 265.81762068 184.57699387 267.2993869 184.01538086 268.78149414 C165.97868189 315.40515434 128.00777631 353.01781066 82.70288086 373.33618164 C73.57815396 377.22073594 64.30078618 380.80700389 54.70288086 383.33618164 C53.85725586 383.57852539 53.01163086 383.82086914 52.14038086 384.07055664 C49.0103556 384.92261907 45.87275429 385.64630963 42.70288086 386.33618164 C41.42413086 386.61848633 40.14538086 386.90079102 38.82788086 387.19165039 C-10.28572311 396.77344487 -63.62202573 385.45599421 -105.07055664 357.86743164 C-140.01577748 333.86787442 -164.43130466 301.35750914 -180.29711914 262.33618164 C-180.65418945 261.49700195 -181.01125977 260.65782227 -181.37915039 259.79321289 C-185.26533935 250.05451626 -187.21032783 239.58173486 -189.29711914 229.33618164 C-189.48838379 228.48572266 -189.67964844 227.63526367 -189.87670898 226.7590332 C-191.78693167 217.24725291 -191.66928783 207.6483206 -191.66772461 197.98608398 C-191.67205995 195.00192505 -191.70836732 192.01929532 -191.74633789 189.03540039 C-191.98343217 148.55285783 -177.14185525 108.21100114 -152.29711914 76.33618164 C-151.88945312 75.81282227 -151.48178711 75.28946289 -151.06176758 74.75024414 C-130.68675706 48.97289016 -105.81055412 30.31743611 -76.29711914 16.33618164 C-75.2155957 15.81282227 -74.13407227 15.28946289 -73.01977539 14.75024414 C-65.71271813 11.40228336 -58.23935251 8.94967858 -50.54711914 6.64868164 C-49.60803711 6.36307373 -48.66895508 6.07746582 -47.70141602 5.78320312 C-31.84550258 1.20680485 -16.45490933 -0.13800632 0 0 Z M-133.29711914 72.33618164 C-167.64621315 112.43323414 -182.0318716 159.91220143 -179.29711914 212.33618164 C-175.42254916 257.50169735 -152.25143279 303.00071315 -117.82348633 332.60327148 C-103.93101588 344.24830558 -88.74700666 353.7596245 -72.29711914 361.33618164 C-71.12536133 361.88016602 -69.95360352 362.42415039 -68.74633789 362.98461914 C-60.12185847 366.8329146 -51.36470249 369.755975 -42.29711914 372.33618164 C-41.27618164 372.63524414 -40.25524414 372.93430664 -39.20336914 373.24243164 C3.95427375 384.59970609 52.04178983 376.33675268 90.70288086 355.33618164 C91.86819336 354.72258789 93.03350586 354.10899414 94.23413086 353.47680664 C136.50085007 330.43954077 166.19149239 289.5973854 179.75585938 243.90429688 C182.27932398 234.84722444 183.62956138 225.66251545 184.70288086 216.33618164 C184.90010742 214.7080957 184.90010742 214.7080957 185.10131836 213.04711914 C187.07944371 193.64010556 186.19883056 173.29856497 181.70288086 154.33618164 C181.54335938 153.62268555 181.38383789 152.90918945 181.21948242 152.17407227 C170.71055713 105.49911425 140.55165295 65.40255684 100.58959961 39.73852539 C25.86445943 -7.01887001 -74.1402912 7.08267578 -133.29711914 72.33618164 Z " fill="#3F0B4C" transform="translate(250.297119140625,55.663818359375)"/>
<path d="M0 0 C1.62109375 1.83984375 1.62109375 1.83984375 1.8984375 4.2734375 C1.78628906 5.26472656 1.67414063 6.25601563 1.55859375 7.27734375 C1.43097656 8.42074219 1.30335938 9.56414062 1.171875 10.7421875 C0.98975353 12.10827 0.80601698 13.47413769 0.62109375 14.83984375 C0.51845215 15.65984863 0.41581055 16.47985352 0.31005859 17.32470703 C-0.02725805 19.99904027 -0.38631353 22.66951227 -0.75390625 25.33984375 C-0.86742432 26.2002124 -0.98094238 27.06058105 -1.09790039 27.94702148 C-2.3580386 36.48628143 -2.3580386 36.48628143 -5.37890625 39.83984375 C-8.26171875 40.9296875 -8.26171875 40.9296875 -11.37890625 40.83984375 C-13.93359375 38.96875 -13.93359375 38.96875 -16.25390625 36.40234375 C-17.03507813 35.55800781 -17.81625 34.71367187 -18.62109375 33.84375 C-19.20117188 33.18246094 -19.78125 32.52117187 -20.37890625 31.83984375 C-29.47341891 35.87270457 -36.76607045 45.12581234 -43.64404297 52.14160156 C-44.5008667 53.01123535 -44.5008667 53.01123535 -45.375 53.8984375 C-45.88216553 54.41720459 -46.38933105 54.93597168 -46.91186523 55.47045898 C-48.37890625 56.83984375 -48.37890625 56.83984375 -51.37890625 58.83984375 C-51.83723669 61.70615975 -51.83723669 61.70615975 -51.76367188 65.12207031 C-51.76904465 65.76621384 -51.77441742 66.41035736 -51.779953 67.07402039 C-51.78974552 68.47466276 -51.79267069 69.8753659 -51.78959656 71.27603912 C-51.78512483 73.49606793 -51.7991013 75.71529674 -51.81799316 77.9352417 C-51.85483165 82.6534291 -51.86848315 87.37153373 -51.87890625 92.08984375 C-51.89099456 97.54417047 -51.91264931 102.99810974 -51.95890808 108.45226288 C-51.97244372 110.63371638 -51.96831253 112.814676 -51.96350098 114.99615479 C-51.972848 116.3441225 -51.98301843 117.69208483 -51.99414062 119.04003906 C-51.99619507 120.21093079 -51.99824951 121.38182251 -52.00036621 122.5881958 C-52.58026386 127.56949981 -54.23155262 130.80442706 -57.94140625 134.15234375 C-62.44699902 137.27160028 -66.2424649 137.0142721 -71.58276367 137.04858398 C-72.53741516 137.05836777 -73.49206665 137.06815155 -74.47564697 137.07823181 C-77.64520872 137.10822461 -80.8147281 137.12958354 -83.984375 137.1484375 C-85.06602747 137.15500933 -86.14767994 137.16158115 -87.26210976 137.16835213 C-92.98893552 137.20096483 -98.71574253 137.22540947 -104.44262695 137.24487305 C-109.18313688 137.26268106 -113.92305141 137.29749122 -118.66333008 137.34741211 C-124.38451148 137.4075968 -130.10514101 137.43834701 -135.82662392 137.44804573 C-138.00632454 137.45660568 -140.18601022 137.47543695 -142.36553001 137.50478935 C-145.42036493 137.54371018 -148.47305208 137.5447372 -151.52807617 137.53686523 C-152.87419731 137.56686615 -152.87419731 137.56686615 -154.24751282 137.59747314 C-159.85267651 137.53277207 -163.01962294 136.44501795 -167.03495312 132.45313454 C-170.685005 128.0715866 -170.67642789 123.60448555 -170.66943359 118.11547852 C-170.67950943 116.97304184 -170.67950943 116.97304184 -170.68978882 115.80752563 C-170.70873181 113.2987001 -170.71269088 110.79014253 -170.71484375 108.28125 C-170.72127342 106.53156933 -170.72800191 104.78188973 -170.73501587 103.0322113 C-170.74697876 99.36804715 -170.75069763 95.70397722 -170.74951172 92.03979492 C-170.74930839 87.35112507 -170.77662871 82.66306042 -170.81105614 77.97453403 C-170.83332156 74.36192565 -170.8373494 70.74946311 -170.83629227 67.13679314 C-170.83864806 65.40846607 -170.84747042 63.68013497 -170.862957 61.95187569 C-170.88261373 59.53202308 -170.87678146 57.11347841 -170.86474609 54.69360352 C-170.87598511 53.98432205 -170.88722412 53.27504059 -170.89880371 52.54426575 C-170.81953371 46.25348217 -168.3511686 42.98825291 -164.22741699 38.49620056 C-160.09547859 36.09355408 -156.50394673 36.28762737 -151.80273438 36.33813477 C-150.84443222 36.33273178 -149.88613007 36.3273288 -148.89878845 36.32176208 C-145.73559551 36.30926941 -142.57331176 36.32576987 -139.41015625 36.34375 C-137.20967562 36.34359503 -135.00919472 36.3421063 -132.80871582 36.33934021 C-128.19868899 36.33795597 -123.58897317 36.3505188 -118.97900391 36.37329102 C-113.07067432 36.40167541 -107.16286154 36.39893851 -101.25449371 36.3862009 C-96.71115711 36.37924496 -92.16793989 36.38703211 -87.62461853 36.39945793 C-85.44612587 36.40397323 -83.2676204 36.40430855 -81.08912659 36.40039253 C-78.04417665 36.39748121 -74.99993816 36.41398408 -71.95507812 36.43579102 C-71.05518661 36.43128937 -70.1552951 36.42678772 -69.22813416 36.42214966 C-63.00364075 36.49619207 -59.67107643 37.67157466 -55.06640625 42.02734375 C-54.50953125 42.62546875 -53.95265625 43.22359375 -53.37890625 43.83984375 C-52.81905029 43.27475098 -52.25919434 42.7096582 -51.68237305 42.12744141 C-49.14633668 39.57062863 -46.60642497 37.01770011 -44.06640625 34.46484375 C-43.18533203 33.57539063 -42.30425781 32.6859375 -41.39648438 31.76953125 C-40.12514648 30.49335938 -40.12514648 30.49335938 -38.828125 29.19140625 C-38.04783936 28.40588379 -37.26755371 27.62036133 -36.46362305 26.81103516 C-34.37890625 24.83984375 -34.37890625 24.83984375 -31.37890625 22.83984375 C-33.13974687 18.87795235 -35.40826175 14.825166 -39.37890625 12.83984375 C-39.7446024 6.3792118 -39.7446024 6.3792118 -38.25512695 4.18237305 C-35.6313491 2.3049294 -33.36008737 2.10451342 -30.171875 1.671875 C-28.94533203 1.50107422 -27.71878906 1.33027344 -26.45507812 1.15429688 C-25.17181641 0.98865234 -23.88855469 0.82300781 -22.56640625 0.65234375 C-20.65891602 0.38647461 -20.65891602 0.38647461 -18.71289062 0.11523438 C-3.88797862 -1.8961078 -3.88797862 -1.8961078 0 0 Z " fill="#FEFBFA" transform="translate(361.37890625,163.16015625)"/>
<path d="M0 0 C0.86863678 0.00404846 1.73727356 0.00809692 2.63223267 0.01226807 C3.54614777 0.00876343 4.46006287 0.00525879 5.40167236 0.00164795 C8.43302937 -0.00717937 11.4641544 -0.00131668 14.49551392 0.00543213 C16.59536789 0.00408577 18.69522156 0.00214548 20.79507446 -0.00036621 C25.20013389 -0.00331883 29.60511232 0.00098461 34.01016235 0.01031494 C39.66655423 0.02170952 45.32275633 0.01515079 50.97914124 0.00317001 C55.31645141 -0.00404485 59.65371632 -0.00176237 63.99102783 0.0034256 C66.07710797 0.00476313 68.16319218 0.00311078 70.24926758 -0.00153351 C73.16088806 -0.0065926 76.07219792 0.00110281 78.98379517 0.01226807 C79.85243195 0.0082196 80.72106873 0.00417114 81.61602783 0 C87.57948619 0.04252941 87.57948619 0.04252941 89.80801392 2.27105713 C89.57156556 6.6565135 87.9024004 8.66290433 84.83535767 11.66949463 C84.01744751 12.47902588 83.19953735 13.28855713 82.35684204 14.12261963 C81.06423462 15.37172119 81.06423462 15.37172119 79.74551392 16.64605713 C78.91084595 17.47105713 78.07617798 18.29605713 77.21621704 19.14605713 C72.84742118 23.43653474 68.38088784 27.55454846 63.74380493 31.55133057 C60.28656335 34.62269009 57.05579437 37.91880734 53.80801392 41.20855713 C53.12867798 41.89240479 52.44934204 42.57625244 51.74942017 43.28082275 C50.09993033 44.94192872 48.45284711 46.60534226 46.80801392 48.27105713 C43.85907752 46.85565883 41.78540519 45.49606488 39.49551392 43.14605713 C38.9631311 42.607229 38.43074829 42.06840088 37.88223267 41.51324463 C36.08574019 39.57127348 34.35094807 37.59571037 32.62051392 35.59527588 C28.60019162 30.98628832 24.40299514 26.57375529 20.12051392 22.20855713 C19.37479126 21.42545166 18.6290686 20.64234619 17.86074829 19.83551025 C17.13822876 19.10138916 16.41570923 18.36726807 15.67129517 17.61090088 C15.02458862 16.944375 14.37788208 16.27784912 13.71157837 15.59112549 C11.92929928 14.10442489 11.92929928 14.10442489 9.87905884 14.18731689 C6.66893024 15.86711895 5.00183232 18.40690533 2.80801392 21.27105713 C3.7407312 22.1985376 4.67344849 23.12601807 5.63442993 24.081604 C9.12400785 27.55295861 12.61017428 31.02772264 16.09536743 34.503479 C17.59868346 36.0017942 19.10289928 37.4992072 20.60806274 38.9956665 C22.78260861 41.15795938 24.95380102 43.32357326 27.12442017 45.48980713 C27.78825211 46.14847778 28.45208405 46.80714844 29.1360321 47.48577881 C32.99856214 51.34785309 36.64833533 55.31352916 40.15626526 59.50164795 C41.89460405 61.36381542 43.73101389 62.80358978 45.80801392 64.27105713 C46.36488892 63.70258057 46.92176392 63.134104 47.49551392 62.54840088 C51.04451523 58.95743502 54.57226908 55.40302909 58.43301392 52.14605713 C62.61186663 48.57137589 66.44115922 44.6752796 70.30801392 40.77105713 C76.5113389 34.51359126 82.74108231 28.55104254 89.80801392 23.27105713 C89.85859016 31.06725301 89.89369506 38.86340683 89.9178772 46.659729 C89.92795481 49.31371644 89.94161705 51.96769272 89.95889282 54.62164307 C89.98306383 58.4292882 89.99447926 62.23678697 90.00332642 66.04449463 C90.01364899 67.23722992 90.02397156 68.42996521 90.03460693 69.65884399 C90.034758 70.75983429 90.03490906 71.86082458 90.0350647 72.99517822 C90.03950592 73.96780609 90.04394714 74.94043396 90.04852295 75.9425354 C89.80801392 78.27105713 89.80801392 78.27105713 87.80801392 80.27105713 C84.83594397 80.46991837 81.9570236 80.54370354 78.98379517 80.52984619 C78.06988007 80.53335083 77.15596497 80.53685547 76.21435547 80.54046631 C73.18299846 80.54929362 70.15187344 80.54343093 67.12051392 80.53668213 C65.02065994 80.53802849 62.92080627 80.53996878 60.82095337 80.54248047 C56.41589394 80.54543309 52.01091551 80.54112964 47.60586548 80.53179932 C41.9494736 80.52040474 36.2932715 80.52696347 30.6368866 80.53894424 C26.29957643 80.54615911 21.96231151 80.54387663 17.625 80.53868866 C15.53891986 80.53735113 13.45283565 80.53900347 11.36676025 80.54364777 C8.45513978 80.54870686 5.54382991 80.54101145 2.63223267 80.52984619 C1.76359589 80.53389465 0.89495911 80.53794312 0 80.54211426 C-5.96345836 80.49958485 -5.96345836 80.49958485 -8.19198608 78.27105713 C-8.39013793 75.84275652 -8.46481876 73.52851694 -8.45077515 71.09918213 C-8.45427979 70.3608313 -8.45778442 69.62248047 -8.46139526 68.86175537 C-8.47021658 66.41476105 -8.46436213 63.96805452 -8.45761108 61.52105713 C-8.45895762 59.8247675 -8.46089806 58.12847825 -8.46340942 56.43218994 C-8.46636123 52.87453543 -8.46206127 49.31698124 -8.45272827 45.75933838 C-8.44133367 41.19254572 -8.44789285 36.62598813 -8.4598732 32.0592041 C-8.46709031 28.55570699 -8.46480457 25.05226586 -8.45961761 21.54876709 C-8.4582807 19.8646034 -8.45993028 18.18043467 -8.46457672 16.49627686 C-8.46963955 14.14502439 -8.46193541 11.7941559 -8.45077515 9.44293213 C-8.45482361 8.74260864 -8.45887207 8.04228516 -8.46304321 7.32073975 C-8.4036645 0.58931482 -6.47946858 0.04620942 0 0 Z " fill="#FF914D" transform="translate(209.19198608398438,209.72894287109375)"/>
</svg>
